<?xml version="1.0" encoding="utf-8"?>
<svg width="461.2470703125" height="165.4100341796875" viewBox="675.524 1163.57 461.247 165.41" xmlns="http://www.w3.org/2000/svg">
  <defs>
    <style>.cls-1,.cls-14,.cls-51,.cls-52,.cls-68,.cls-69,.cls-70,.cls-74,.cls-75,.cls-82,.cls-83,.cls-86,.cls-89,.cls-90,.cls-94{fill:none;}.cls-2,.cls-33,.cls-34,.cls-35,.cls-36,.cls-53,.cls-58,.cls-71,.cls-84{fill:#3a4042;}.cls-3{opacity:0.1;}.cls-4,.cls-59,.cls-7,.cls-8{fill:#fff;}.cls-5{fill:url(#New_Pattern_Swatch_11);}.cls-6{clip-path:url(#clip-path);}.cls-67,.cls-69,.cls-7,.cls-74,.cls-99{fill-rule:evenodd;}.cls-76,.cls-8{font-size:18px;}.cls-15,.cls-23,.cls-28,.cls-54,.cls-58,.cls-59,.cls-76,.cls-77,.cls-8,.cls-84,.cls-87{font-family:SourceSansPro-Regular, Source Sans Pro;}.cls-9{letter-spacing:-0.03em;}.cls-10{letter-spacing:0em;}.cls-11{letter-spacing:-0.04em;}.cls-12,.cls-33{letter-spacing:-0.01em;}.cls-13{letter-spacing:-0.02em;}.cls-14{stroke:#fff;}.cls-14,.cls-51,.cls-52,.cls-53,.cls-68,.cls-69,.cls-70,.cls-74,.cls-75,.cls-82,.cls-83,.cls-86{stroke-miterlimit:10;}.cls-15,.cls-23,.cls-59{font-size:38px;}.cls-15{fill:#1063d5;}.cls-16{letter-spacing:-0.01em;}.cls-17{letter-spacing:-0.01em;}.cls-18{letter-spacing:0em;}.cls-19{letter-spacing:0em;}.cls-20{letter-spacing:0em;}.cls-21{letter-spacing:-0.02em;}.cls-22{letter-spacing:-0.02em;}.cls-23,.cls-28,.cls-95,.cls-97,.cls-99{fill:#007aff;}.cls-24{letter-spacing:-0.02em;}.cls-25{letter-spacing:-0.02em;}.cls-26{letter-spacing:-0.01em;}.cls-27{letter-spacing:-0.01em;}.cls-28{font-size:27px;}.cls-29{letter-spacing:-0.02em;}.cls-30{letter-spacing:-0.01em;}.cls-31,.cls-71{letter-spacing:-0.02em;}.cls-32{letter-spacing:0em;}.cls-34{letter-spacing:-0.01em;}.cls-35{letter-spacing:0.01em;}.cls-36,.cls-65{letter-spacing:-0.01em;}.cls-37{letter-spacing:0em;}.cls-38{letter-spacing:-0.01em;}.cls-39{letter-spacing:-0.02em;}.cls-40{letter-spacing:0em;}.cls-41{letter-spacing:0.01em;}.cls-42{letter-spacing:-0.03em;}.cls-43{letter-spacing:0em;}.cls-44{letter-spacing:0.02em;}.cls-45{letter-spacing:-0.02em;}.cls-46{letter-spacing:-0.04em;}.cls-47,.cls-54,.cls-67,.cls-76,.cls-77,.cls-87,.cls-91{fill:#3eb;}.cls-48{letter-spacing:-0.02em;}.cls-49{letter-spacing:-0.01em;}.cls-50{letter-spacing:-0.05em;}.cls-51,.cls-74,.cls-83{stroke:#007aff;}.cls-51,.cls-52{stroke-width:3px;}.cls-52,.cls-53,.cls-68,.cls-69,.cls-70,.cls-75,.cls-82,.cls-86,.cls-94{stroke:#3eb;}.cls-54,.cls-84{font-size:21px;}.cls-55{letter-spacing:-0.02em;}.cls-56{letter-spacing:-0.01em;}.cls-57{letter-spacing:0em;}.cls-58,.cls-77{font-size:17px;}.cls-60{letter-spacing:0em;}.cls-61{letter-spacing:-0.02em;}.cls-62{letter-spacing:0.01em;}.cls-63{letter-spacing:-0.05em;}.cls-64{letter-spacing:-0.02em;}.cls-66{letter-spacing:0.02em;}.cls-68{stroke-dasharray:1 2;}.cls-72{letter-spacing:-0.02em;}.cls-73{letter-spacing:0.01em;}.cls-75{stroke-dasharray:2.32 4.65;}.cls-78{letter-spacing:0em;}.cls-79{letter-spacing:-0.01em;}.cls-80{letter-spacing:-0.01em;}.cls-81{letter-spacing:-0.01em;}.cls-82{stroke-dasharray:2.31 4.62;}.cls-85{letter-spacing:-0.01em;}.cls-86{stroke-dasharray:3 4;}.cls-87{font-size:12px;}.cls-88{letter-spacing:-0.01em;}.cls-89,.cls-90{stroke:#ccc;}.cls-89,.cls-90,.cls-94{stroke-linecap:round;stroke-linejoin:round;}.cls-89,.cls-94{stroke-width:8px;}.cls-90{stroke-width:7.71px;}.cls-91,.cls-95{font-size:9.37px;font-family:SourceSansPro-Bold, Source Sans Pro;font-weight:700;}.cls-92{letter-spacing:-0.02em;}.cls-93{letter-spacing:-0.02em;}.cls-96{letter-spacing:-0.04em;}.cls-98{letter-spacing:-0.07em;}</style>
  </defs>
  <line class="cls-52" x1="693.104" y1="1326.691" x2="781.976" y2="1326.691" style="stroke: rgb(46, 186, 155); stroke-width: 4;"/>
  <path class="cls-69" d="M 704.927 1296.678 C 681.542 1271.706 694.52 1231.301 728.287 1223.946 C 762.054 1216.593 791.284 1247.806 780.902 1280.132 C 778.985 1286.102 775.789 1291.602 771.531 1296.267" style="stroke: rgb(46, 186, 155); stroke-width: 2;"/>
  <path class="cls-70" d="M 727.963 1286.485 C 727.963 1286.485 727.135 1298.79 738.119 1298.79 C 749.103 1298.79 748.504 1286.485 748.504 1286.485 C 748.504 1286.485 762.104 1290.329 766.168 1302.508 C 755.444 1309.943 743.401 1310.971 737.52 1310.971 C 731.638 1310.971 718.157 1308.917 709.919 1302.508 C 713.444 1290.692 727.963 1286.485 727.963 1286.485 Z" style="stroke: rgb(46, 186, 155); stroke-width: 2;"/>
  <path class="cls-70" d="M 719.196 1260.316 C 716.557 1260.529 714.546 1262.722 714.612 1265.315 C 714.43 1267.79 716.53 1269.848 719.056 1269.669 C 719.056 1269.669 719.446 1287.865 737.5 1287.865 C 755.554 1287.865 757.121 1269.542 757.121 1269.542 C 757.121 1269.542 761.565 1269.542 761.565 1265.315 C 761.565 1261.09 757.121 1260.316 757.121 1260.316 L 757.121 1254.545 L 748.484 1248.264 C 748.484 1248.264 746.656 1256.98 736.321 1258.262 C 730.228 1259.042 724.068 1257.428 719.186 1253.771 Z" style="stroke: rgb(46, 186, 155); stroke-width: 2;"/>
  <path class="cls-70" d="M 730.979 1289.283 C 733.257 1290.169 735.678 1290.646 738.129 1290.692 C 740.529 1290.661 742.901 1290.183 745.119 1289.283 C 745.119 1289.283 745.338 1295.944 738.129 1295.944 C 730.919 1295.944 730.979 1289.283 730.979 1289.283 Z" style="stroke: rgb(46, 186, 155); stroke-width: 2;"/>
  <path class="cls-70" d="M 719.196 1260.316 L 719.196 1253.781 C 724.078 1257.438 730.238 1259.052 736.331 1258.272 C 746.666 1256.99 748.494 1248.274 748.494 1248.274 L 757.131 1254.555 L 757.131 1260.326 C 758.253 1260.569 759.287 1261.104 760.127 1261.872 L 760.237 1261.872 C 760.237 1261.872 759.977 1258.8 759.977 1250.212 C 759.977 1241.622 750.301 1236.623 750.301 1236.623 C 750.301 1236.623 753.437 1235.342 751.3 1229.707 C 749.602 1234.06 731.808 1230.685 724.478 1235.087 C 717.149 1239.489 716.11 1248.929 716.11 1248.929 L 716.11 1261.491 L 716.16 1261.579 C 717.027 1260.881 718.081 1260.442 719.196 1260.316 Z" style="stroke: rgb(46, 186, 155); stroke-width: 2;"/>
  <path class="cls-70" d="M 714.832 1294.409 C 718.53 1290.867 723.029 1288.234 727.963 1286.72 L 728.812 1286.054 C 719.316 1281.447 719.066 1269.678 719.066 1269.678 C 717.731 1269.724 716.441 1269.2 715.531 1268.24 L 715.531 1285.575 C 715.531 1285.575 714.882 1289.165 710.818 1287.365 C 710.429 1289.321 711.946 1292.922 714.832 1294.409 Z" style="stroke: rgb(46, 186, 155); stroke-width: 2;"/>
  <path class="cls-70" d="M 748.504 1286.485 C 753.629 1288.141 758.223 1291.087 761.825 1295.025 C 763.822 1294.526 766.128 1292.931 765.509 1288.177 C 764.732 1290.079 762.145 1290.443 760.853 1288.833 C 760.441 1288.319 760.235 1287.675 760.277 1287.022 C 760.447 1282.68 760.277 1271.371 760.277 1268.437 C 759.379 1269.132 758.276 1269.526 757.131 1269.561 C 757.131 1269.561 756.223 1280.195 747.805 1285.263 C 748.124 1285.888 748.504 1286.485 748.504 1286.485 Z" style="stroke: rgb(46, 186, 155); stroke-width: 2;"/>
  <path class="cls-68" d="M 734.045 1214.279 C 734.045 1214.279 754.515 1181.507 791.961 1181.507 C 825.643 1181.507 845.993 1208.019 849.748 1213.35" style="stroke: rgb(46, 186, 155); stroke-width: 2;"/>
  <polygon class="cls-47" points="847.222 1212.675 849.568 1213.125 850.018 1210.817 850.826 1211.981 850.377 1214.289 848.02 1213.839 847.222 1212.675" style="stroke: rgb(46, 186, 155); stroke-width: 2;"/>
  <path class="cls-68" d="M 846.383 1197.65 C 846.383 1197.65 866.853 1164.878 904.299 1164.878 C 937.981 1164.878 958.332 1191.389 962.086 1196.72" style="stroke: rgb(46, 186, 155); stroke-width: 2;"/>
  <polygon class="cls-47" points="959.56 1196.045 961.906 1196.495 962.356 1194.187 963.165 1195.35 962.715 1197.66 960.359 1197.21 959.56 1196.045" style="stroke: rgb(46, 186, 155); stroke-width: 2;"/>
  <path class="cls-68" d="M 958.721 1214.279 C 958.721 1214.279 979.192 1181.507 1016.638 1181.507 C 1050.319 1181.507 1070.67 1208.019 1074.424 1213.35" style="stroke: rgb(46, 186, 155); stroke-width: 2;"/>
  <polygon class="cls-47" points="1071.898 1212.675 1074.245 1213.125 1074.694 1210.817 1075.503 1211.981 1075.054 1214.289 1072.707 1213.839 1071.898 1212.675" style="stroke: rgb(46, 186, 155); stroke-width: 2;"/>
  <path class="cls-47" d="M 1121.557 1291.592 C 1121.906 1292.071 1122.555 1292.57 1122.555 1293.01 C 1122.555 1293.45 1121.816 1293.86 1121.397 1294.281 L 1119.649 1296.013 C 1119.649 1296.659 1119.649 1297.618 1119.649 1298.576 C 1119.709 1302.078 1119.779 1305.58 1119.829 1309.083 C 1119.861 1310.773 1118.602 1312.22 1116.893 1312.458 C 1115.886 1312.499 1114.977 1311.868 1114.687 1310.921 C 1113.758 1311.988 1112.689 1312.574 1111.351 1311.969 C 1110.443 1311.568 1110.473 1310.706 1110.563 1309.796 C 1109.494 1310.334 1108.376 1310.57 1107.447 1309.796 C 1106.53 1309.106 1106.234 1307.881 1106.738 1306.862 C 1105.08 1307.41 1103.573 1307.4 1102.314 1306.177 C 1101.094 1305.036 1100.792 1303.239 1101.575 1301.774 C 1100.585 1302.225 1099.409 1301.959 1098.719 1301.129 C 1098.042 1300.309 1097.951 1299.166 1098.49 1298.253 C 1097.894 1298.065 1097.313 1297.833 1096.752 1297.558 C 1096.133 1297.15 1095.917 1296.357 1096.243 1295.7 C 1096.475 1295.086 1096.755 1294.491 1097.082 1293.92 C 1095.824 1292.862 1095.534 1292.149 1096.083 1290.985 C 1096.59 1289.832 1097.729 1289.07 1099.009 1289.028 C 1103.383 1289.107 1107.756 1289.155 1112.13 1289.215 C 1112.41 1289.215 1112.679 1289.215 1112.789 1289.028 C 1113.688 1288.138 1114.577 1287.219 1115.525 1286.367 C 1115.645 1286.26 1116.214 1286.367 1116.384 1286.592 C 1117.003 1287.307 1117.383 1287.169 1118.062 1286.592 C 1120.997 1283.892 1124.053 1281.281 1126.999 1278.619 C 1128.606 1277.181 1130.184 1275.685 1131.772 1274.257 C 1132.578 1273.625 1133.685 1273.511 1134.608 1273.963 C 1135.479 1274.695 1135.681 1275.937 1135.087 1276.898 C 1134.198 1278.012 1133.22 1279.06 1132.251 1280.116 C 1131.502 1280.948 1130.723 1281.75 1129.954 1282.562 C 1128.327 1284.274 1126.689 1285.976 1125.082 1287.708 C 1123.843 1288.97 1122.715 1290.281 1121.557 1291.592 Z" style="stroke: rgb(46, 186, 155); fill: rgb(46, 186, 155);"/>
  <circle class="cls-47" cx="1099.58" cy="1315.28" r="3.05" style="stroke: rgb(46, 186, 155); fill: rgb(46, 186, 155);" transform="matrix(0.998562, 0, 0, 0.978256, 0.979965, 26.608946)"/>
  <circle class="cls-47" cx="1091.33" cy="1311.21" r="2.29" style="stroke: rgb(46, 186, 155); fill: rgb(46, 186, 155);" transform="matrix(0.998562, 0, 0, 0.978256, 0.979965, 26.608946)"/>
  <circle class="cls-47" cx="1096.79" cy="1307.28" r="1.4" style="stroke: rgb(46, 186, 155); fill: rgb(46, 186, 155);" transform="matrix(0.998562, 0, 0, 0.978256, 0.979965, 26.608946)"/>
  <path class="cls-47" d="M 1044.727 1255.992 C 1044.887 1251.473 1049.321 1248.89 1054.283 1248.362 C 1057.619 1248.01 1060.894 1247.198 1064.219 1246.709 C 1065.069 1246.575 1065.941 1246.724 1066.696 1247.13 C 1072.008 1250.406 1083.811 1257.558 1083.811 1257.558 L 1083.811 1259.436 C 1083.811 1259.436 1076.422 1260.962 1071.828 1261.96 L 1069.691 1262.41 C 1066.336 1263.153 1064.758 1265.345 1065.397 1268.279 C 1066.036 1271.214 1068.573 1272.563 1071.828 1271.87 C 1075.753 1271.028 1079.657 1270.098 1083.571 1269.218 C 1085.988 1268.671 1088.444 1268.24 1090.821 1267.546 C 1091.819 1267.272 1093.427 1267.056 1093.427 1265.902 C 1093.427 1264.747 1091.43 1265.472 1090.432 1265.677 C 1084.161 1267.028 1077.909 1268.495 1071.648 1269.904 C 1069.172 1270.461 1067.654 1269.688 1067.225 1267.721 C 1066.875 1266.02 1067.944 1264.787 1070.28 1264.298 C 1076.911 1262.86 1083.531 1261.363 1090.172 1260.014 C 1096.642 1258.673 1099.468 1261.206 1100.627 1265.687 C 1101.115 1268.648 1099.3 1271.508 1096.373 1272.389 C 1087.745 1274.824 1079.807 1276.908 1071.149 1279.235 C 1068.199 1280.077 1065.016 1279.334 1062.771 1277.279 C 1058.078 1273.289 1053.235 1269.454 1048.791 1265.148 C 1046.964 1263.241 1044.727 1261.529 1044.727 1255.992 Z" style="stroke: rgb(46, 186, 155); fill: rgb(46, 186, 155);"/>
  <path class="cls-47" d="M 1046.515 1266.264 C 1047.823 1267.369 1048.981 1268.319 1050.099 1269.297 C 1053.528 1272.304 1056.947 1275.32 1060.355 1278.346 C 1063.442 1281.329 1067.957 1282.405 1072.098 1281.143 C 1079.907 1279.06 1087.755 1277.122 1095.594 1275.127 C 1098.021 1274.511 1099.588 1275.038 1100.277 1276.663 C 1101.016 1278.453 1100.177 1280.419 1097.861 1281.281 C 1094.735 1282.444 1091.48 1283.296 1088.265 1284.215 C 1082.812 1285.79 1077.28 1287.277 1071.878 1288.89 C 1067.225 1290.261 1063.171 1289.616 1059.586 1286.152 C 1056.36 1283.041 1046.325 1273.367 1044.717 1271.479 C 1042.97 1269.004 1044.398 1265.559 1046.515 1266.264 Z" style="stroke: rgb(46, 186, 155); fill: rgb(46, 186, 155);"/>
  <path class="cls-47" d="M 1092.798 1255.992 C 1092.798 1255.992 1074.824 1245.702 1074.005 1245.174 C 1077.26 1244.351 1080.336 1243.637 1083.252 1245.174 C 1087.316 1247.256 1091.24 1249.282 1095.374 1251.208 C 1096.703 1251.825 1098.25 1252.382 1098.1 1254.144 C 1097.951 1255.904 1096.343 1256.629 1094.745 1257.079 C 1093.986 1257.284 1092.808 1257.509 1092.808 1257.509 Z" style="stroke: rgb(46, 186, 155); fill: rgb(46, 186, 155);"/>
  <polygon class="cls-47" points="1088.464 1258.467 1086.707 1258.898 1086.707 1256.853 1069.032 1246.152 1071.668 1245.721 1088.464 1255.885 1088.464 1258.467" style="stroke: rgb(46, 186, 155); fill: rgb(46, 186, 155);"/>
  <path class="cls-47" d="M 883.899 1287.658 L 880.903 1287.658 L 880.903 1282.434 L 821.529 1282.434 L 821.529 1287.658 L 818.533 1287.658 C 817.907 1287.664 817.4 1288.16 817.395 1288.774 L 817.395 1292.843 C 817.395 1293.46 817.903 1293.962 818.533 1293.968 L 883.919 1293.968 C 884.549 1293.962 885.057 1293.46 885.057 1292.843 L 885.057 1288.774 C 885.051 1288.152 884.533 1287.653 883.899 1287.658 Z" style="stroke: rgb(46, 186, 155); fill: rgb(46, 186, 155);"/>
  <path class="cls-47" d="M 853.622 1250.622 L 853.622 1246.181 L 856.997 1246.181 C 857.624 1246.176 858.131 1245.68 858.136 1245.066 L 858.136 1240.996 C 858.131 1240.382 857.624 1239.886 856.997 1239.881 L 845.424 1239.881 C 844.798 1239.886 844.291 1240.382 844.286 1240.996 L 844.286 1245.066 C 844.291 1245.68 844.798 1246.176 845.424 1246.181 L 848.799 1246.181 L 848.799 1250.622 C 833.381 1251.856 821.514 1264.482 821.529 1279.637 L 880.903 1279.637 C 880.917 1264.479 869.045 1251.851 853.622 1250.622 Z M 833.901 1273.631 L 828.908 1273.631 C 831.421 1263.252 840.604 1255.728 851.475 1255.141 C 842.884 1258.119 836.321 1265.023 833.901 1273.631 Z" style="stroke: rgb(46, 186, 155); fill: rgb(46, 186, 155);"/>
  <path class="cls-47" d="M 990.755 1272.583 L 924.211 1272.583 C 922.209 1272.462 921.091 1270.262 922.2 1268.624 C 922.651 1267.958 923.396 1267.536 924.211 1267.487 L 989.587 1267.487 L 996.577 1259.739 C 997.07 1259.192 997.779 1258.88 998.524 1258.878 L 1009.917 1258.878 C 1011.919 1259 1013.037 1261.199 1011.928 1262.838 C 1011.477 1263.505 1010.732 1263.926 1009.917 1263.976 L 999.702 1263.976 L 992.712 1271.723 C 992.216 1272.272 991.503 1272.585 990.755 1272.583 Z" style="stroke: rgb(46, 186, 155); fill: rgb(46, 186, 155);"/>
  <path class="cls-47" d="M 932.179 1296.325 C 930.74 1296.325 929.573 1295.184 929.573 1293.772 L 929.573 1270.177 C 929.697 1268.216 931.943 1267.12 933.614 1268.207 C 934.295 1268.649 934.725 1269.379 934.776 1270.177 L 934.776 1293.772 C 934.776 1295.18 933.615 1296.32 932.179 1296.325 Z" style="stroke: rgb(46, 186, 155); fill: rgb(46, 186, 155);"/>
  <path class="cls-47" d="M 932.179 1305.893 C 926.414 1305.893 922.811 1299.778 925.694 1294.888 C 928.576 1289.996 935.782 1289.996 938.665 1294.888 C 939.322 1296.003 939.668 1297.268 939.668 1298.556 C 939.668 1302.608 936.315 1305.893 932.179 1305.893 Z M 932.179 1296.325 C 930.427 1296.325 929.331 1298.185 930.207 1299.672 C 931.084 1301.158 933.275 1301.158 934.151 1299.672 C 934.351 1299.332 934.456 1298.948 934.456 1298.556 C 934.456 1297.324 933.436 1296.325 932.179 1296.325 Z" style="stroke: rgb(46, 186, 155); fill: rgb(46, 186, 155);"/>
  <path class="cls-47" d="M 983.435 1296.325 C 981.997 1296.325 980.829 1295.184 980.829 1293.772 L 980.829 1270.177 C 980.953 1268.216 983.199 1267.12 984.87 1268.207 C 985.551 1268.649 985.981 1269.379 986.032 1270.177 L 986.032 1293.772 C 986.032 1295.18 984.87 1296.32 983.435 1296.325 Z" style="stroke: rgb(46, 186, 155); fill: rgb(46, 186, 155);"/>
  <path class="cls-47" d="M 983.435 1305.893 C 977.67 1305.893 974.067 1299.778 976.95 1294.888 C 979.833 1289.996 987.038 1289.996 989.921 1294.888 C 990.578 1296.003 990.925 1297.268 990.925 1298.556 C 990.925 1302.608 987.572 1305.893 983.435 1305.893 Z M 983.435 1296.325 C 981.683 1296.325 980.588 1298.185 981.464 1299.672 C 982.34 1301.158 984.531 1301.158 985.407 1299.672 C 985.607 1299.332 985.712 1298.948 985.712 1298.556 C 985.712 1297.324 984.693 1296.325 983.435 1296.325 Z" style="stroke: rgb(46, 186, 155); fill: rgb(46, 186, 155);"/>
  <path class="cls-47" d="M 988.179 1259.035 L 984.314 1259.035 C 983.717 1255.214 982.507 1251.51 980.729 1248.059 C 977.424 1241.797 970.674 1234.364 957.263 1234.364 C 934.007 1234.364 929.423 1252.481 928.525 1259.074 L 924.89 1259.074 C 922.888 1259.195 921.77 1261.396 922.879 1263.033 C 923.33 1263.7 924.075 1264.121 924.89 1264.17 L 988.179 1264.17 C 990.181 1264.049 991.298 1261.849 990.19 1260.211 C 989.738 1259.545 988.993 1259.123 988.179 1259.074 Z M 973.25 1255.67 L 973.04 1255.67 C 972.398 1255.672 971.851 1255.215 971.752 1254.594 C 971.153 1250.935 968.876 1248.088 964.982 1246.112 C 963.099 1245.164 961.079 1244.503 958.991 1244.156 C 957.999 1244.024 957.525 1242.889 958.137 1242.115 C 958.422 1241.755 958.88 1241.571 959.34 1241.631 C 961.684 1242.007 963.955 1242.736 966.07 1243.793 C 970.714 1246.122 973.55 1249.663 974.289 1254.172 C 974.428 1254.868 973.961 1255.542 973.25 1255.67 Z" style="stroke: rgb(46, 186, 155); fill: rgb(46, 186, 155);"/>
  <path class="cls-47" d="M 956.534 1239.43 C 955.095 1239.43 953.928 1238.287 953.928 1236.877 L 953.928 1232.896 C 953.804 1230.934 955.894 1229.576 957.691 1230.452 C 958.628 1230.91 959.195 1231.872 959.13 1232.896 L 959.13 1236.877 C 959.13 1238.284 957.97 1239.425 956.534 1239.43 Z" style="stroke: rgb(46, 186, 155); fill: rgb(46, 186, 155);"/>
  <path class="cls-47" d="M 963.125 1233.052 L 949.944 1233.052 C 947.942 1232.931 946.824 1230.732 947.933 1229.093 C 948.384 1228.427 949.129 1228.004 949.944 1227.955 L 963.125 1227.955 C 965.127 1228.077 966.244 1230.277 965.136 1231.916 C 964.684 1232.582 963.94 1233.002 963.125 1233.052 Z" style="stroke: rgb(46, 186, 155); fill: rgb(46, 186, 155);"/>
</svg>