<?xml version="1.0" encoding="utf-8"?>
<svg width="249.76502990722656" height="130.08984375" viewBox="133.74 2825.06 249.765 130.09" xmlns="http://www.w3.org/2000/svg">
  <defs>
    <style>.cls-1,.cls-14,.cls-51,.cls-52,.cls-68,.cls-69,.cls-70,.cls-74,.cls-75,.cls-82,.cls-83,.cls-86,.cls-89,.cls-90,.cls-94{fill:none;}.cls-2,.cls-33,.cls-34,.cls-35,.cls-36,.cls-53,.cls-58,.cls-71,.cls-84{fill:#3a4042;}.cls-3{opacity:0.1;}.cls-4,.cls-59,.cls-7,.cls-8{fill:#fff;}.cls-5{fill:url(#New_Pattern_Swatch_11);}.cls-6{clip-path:url(#clip-path);}.cls-67,.cls-69,.cls-7,.cls-74,.cls-99{fill-rule:evenodd;}.cls-76,.cls-8{font-size:18px;}.cls-15,.cls-23,.cls-28,.cls-54,.cls-58,.cls-59,.cls-76,.cls-77,.cls-8,.cls-84,.cls-87{font-family:SourceSansPro-Regular, Source Sans Pro;}.cls-9{letter-spacing:-0.03em;}.cls-10{letter-spacing:0em;}.cls-11{letter-spacing:-0.04em;}.cls-12,.cls-33{letter-spacing:-0.01em;}.cls-13{letter-spacing:-0.02em;}.cls-14{stroke:#fff;}.cls-14,.cls-51,.cls-52,.cls-53,.cls-68,.cls-69,.cls-70,.cls-74,.cls-75,.cls-82,.cls-83,.cls-86{stroke-miterlimit:10;}.cls-15,.cls-23,.cls-59{font-size:38px;}.cls-15{fill:#1063d5;}.cls-16{letter-spacing:-0.01em;}.cls-17{letter-spacing:-0.01em;}.cls-18{letter-spacing:0em;}.cls-19{letter-spacing:0em;}.cls-20{letter-spacing:0em;}.cls-21{letter-spacing:-0.02em;}.cls-22{letter-spacing:-0.02em;}.cls-23,.cls-28,.cls-95,.cls-97,.cls-99{fill:#007aff;}.cls-24{letter-spacing:-0.02em;}.cls-25{letter-spacing:-0.02em;}.cls-26{letter-spacing:-0.01em;}.cls-27{letter-spacing:-0.01em;}.cls-28{font-size:27px;}.cls-29{letter-spacing:-0.02em;}.cls-30{letter-spacing:-0.01em;}.cls-31,.cls-71{letter-spacing:-0.02em;}.cls-32{letter-spacing:0em;}.cls-34{letter-spacing:-0.01em;}.cls-35{letter-spacing:0.01em;}.cls-36,.cls-65{letter-spacing:-0.01em;}.cls-37{letter-spacing:0em;}.cls-38{letter-spacing:-0.01em;}.cls-39{letter-spacing:-0.02em;}.cls-40{letter-spacing:0em;}.cls-41{letter-spacing:0.01em;}.cls-42{letter-spacing:-0.03em;}.cls-43{letter-spacing:0em;}.cls-44{letter-spacing:0.02em;}.cls-45{letter-spacing:-0.02em;}.cls-46{letter-spacing:-0.04em;}.cls-47,.cls-54,.cls-67,.cls-76,.cls-77,.cls-87,.cls-91{fill:#3eb;}.cls-48{letter-spacing:-0.02em;}.cls-49{letter-spacing:-0.01em;}.cls-50{letter-spacing:-0.05em;}.cls-51,.cls-74,.cls-83{stroke:#007aff;}.cls-51,.cls-52{stroke-width:3px;}.cls-52,.cls-53,.cls-68,.cls-69,.cls-70,.cls-75,.cls-82,.cls-86,.cls-94{stroke:#3eb;}.cls-54,.cls-84{font-size:21px;}.cls-55{letter-spacing:-0.02em;}.cls-56{letter-spacing:-0.01em;}.cls-57{letter-spacing:0em;}.cls-58,.cls-77{font-size:17px;}.cls-60{letter-spacing:0em;}.cls-61{letter-spacing:-0.02em;}.cls-62{letter-spacing:0.01em;}.cls-63{letter-spacing:-0.05em;}.cls-64{letter-spacing:-0.02em;}.cls-66{letter-spacing:0.02em;}.cls-68{stroke-dasharray:1 2;}.cls-72{letter-spacing:-0.02em;}.cls-73{letter-spacing:0.01em;}.cls-75{stroke-dasharray:2.32 4.65;}.cls-78{letter-spacing:0em;}.cls-79{letter-spacing:-0.01em;}.cls-80{letter-spacing:-0.01em;}.cls-81{letter-spacing:-0.01em;}.cls-82{stroke-dasharray:2.31 4.62;}.cls-85{letter-spacing:-0.01em;}.cls-86{stroke-dasharray:3 4;}.cls-87{font-size:12px;}.cls-88{letter-spacing:-0.01em;}.cls-89,.cls-90{stroke:#ccc;}.cls-89,.cls-90,.cls-94{stroke-linecap:round;stroke-linejoin:round;}.cls-89,.cls-94{stroke-width:8px;}.cls-90{stroke-width:7.71px;}.cls-91,.cls-95{font-size:9.37px;font-family:SourceSansPro-Bold, Source Sans Pro;font-weight:700;}.cls-92{letter-spacing:-0.02em;}.cls-93{letter-spacing:-0.02em;}.cls-96{letter-spacing:-0.04em;}.cls-98{letter-spacing:-0.07em;}</style>
  </defs>
  <path class="cls-74" d="M 181.452 2874.056 L 144.786 2874.056 C 138.867 2874.056 135.622 2878.479 135.622 2883.654 L 135.622 2925.885 C 135.622 2931.061 138.827 2934.621 144.786 2934.621 L 155.37 2934.621 C 160.687 2940.167 168.036 2948.902 171.064 2952.563 C 175.948 2955.15 174.3 2949.484 174.3 2949.484 L 174.3 2934.621 L 199.207 2934.621 C 205.126 2934.621 208.53 2931.943 208.53 2926.748 L 208.53 2918.314 L 193.131 2918.314 C 186.677 2918.319 181.442 2913.001 181.442 2906.44 Z" style="stroke: rgb(59, 114, 189); stroke-width: 3;"/>
  <path class="cls-69" d="M 199.662 2848.432 C 193.743 2848.432 188.732 2852.765 188.732 2857.94 L 188.732 2902.288 C 188.732 2907.483 193.525 2911.313 199.504 2911.313 L 222.961 2911.313 L 222.961 2925.294 C 222.961 2925.294 222.113 2930.228 226.197 2928.092 C 229.225 2924.431 236.574 2916.86 241.891 2911.323 L 250.768 2911.323 C 256.687 2911.323 261.619 2907.483 261.619 2902.298 L 261.619 2857.95 C 261.619 2852.775 256.687 2848.442 250.69 2848.442 Z" style="stroke: rgb(46, 186, 155); stroke-width: 3;"/>
  <path class="cls-67" d="M 349.358 2858.234 C 349.358 2860.722 351.104 2863.069 353.6 2863.069 C 356.059 2862.95 357.96 2860.826 357.842 2858.325 C 357.944 2855.875 356.012 2853.834 353.6 2853.843 C 351.207 2853.795 349.267 2855.804 349.358 2858.234 Z M 344.781 2873.208 C 344.781 2873.399 344.781 2873.759 344.781 2873.759 L 353.412 2873.759 C 353.868 2870.318 356.278 2867.475 359.558 2866.508 C 357.883 2865.144 355.784 2864.433 353.64 2864.502 C 347.701 2864.502 344.781 2868.334 344.781 2873.208 Z M 368.949 2858.234 C 368.949 2860.722 370.695 2863.069 373.19 2863.069 C 375.651 2862.95 377.55 2860.826 377.433 2858.325 C 377.534 2855.875 375.603 2853.834 373.19 2853.843 C 370.798 2853.795 368.857 2855.804 368.949 2858.234 Z M 373.349 2873.759 L 382 2873.759 C 382 2873.579 382 2873.399 382 2873.208 C 382 2868.334 378.843 2864.533 373.24 2864.533 C 371.039 2864.444 368.876 2865.155 367.144 2866.538 C 370.402 2867.537 372.813 2870.342 373.349 2873.759 Z M 359.154 2860.892 C 359.154 2863.379 360.9 2865.726 363.395 2865.726 C 365.855 2865.608 367.755 2863.484 367.637 2860.982 C 367.75 2858.536 365.834 2856.489 363.425 2856.479 C 361.012 2856.413 359.05 2858.441 359.154 2860.892 Z M 354.547 2875.865 C 354.547 2876.056 354.547 2876.417 354.547 2876.417 L 372.145 2876.417 C 372.145 2876.237 372.145 2876.056 372.145 2875.865 C 372.145 2870.991 368.988 2867.19 363.385 2867.19 C 357.506 2867.18 354.547 2870.991 354.547 2875.865 Z" style="stroke: rgb(46, 186, 155); fill: rgb(46, 186, 155);"/>
  <path class="cls-67" d="M 351.854 2900.001 C 352.548 2900.051 353.137 2900.536 353.334 2901.215 C 353.334 2901.215 356.707 2913.5 357.132 2914.934 C 357.451 2915.816 358.198 2916.465 359.105 2916.649 L 371.534 2916.649 C 373.082 2915.646 371.75 2913.791 371.75 2913.791 L 360.505 2913.791 C 359.667 2913.791 359.381 2912.647 359.381 2912.647 C 359.381 2912.647 355.731 2899.359 355.435 2898.356 C 355.3 2897.792 354.865 2897.35 354.311 2897.213 L 348.687 2897.213 C 347.928 2898.006 347.991 2899.289 348.825 2900.001 Z M 358.246 2920.36 C 358.246 2921.903 359.89 2922.869 361.206 2922.097 C 362.521 2921.325 362.521 2919.395 361.206 2918.623 C 360.906 2918.446 360.566 2918.354 360.219 2918.354 C 359.133 2918.359 358.256 2919.255 358.256 2920.36 Z M 367.804 2920.36 C 367.804 2921.903 369.448 2922.869 370.764 2922.097 C 372.079 2921.325 372.079 2919.395 370.764 2918.623 C 370.464 2918.446 370.124 2918.354 369.777 2918.354 C 368.688 2918.354 367.804 2919.251 367.804 2920.36 Z M 358.927 2901.134 L 361.512 2910.341 C 361.864 2911.068 362.598 2911.521 363.395 2911.504 L 370.646 2911.504 C 371.375 2911.534 372.044 2911.097 372.323 2910.411 C 372.737 2909.248 375.115 2901.134 375.115 2901.134 C 375.115 2901.134 375.528 2899.5 374 2899.5 L 360.002 2899.5 C 359.161 2899.482 358.577 2900.341 358.888 2901.134 Z" style="stroke: rgb(46, 186, 155); fill: rgb(46, 186, 155);"/>
  <path class="cls-67" d="M 304.504 2837.43 C 304.601 2839.326 305.078 2841.182 305.906 2842.885 L 314.437 2856.043 L 323.147 2843.076 C 323.986 2841.31 324.462 2839.388 324.549 2837.43 C 324.549 2829.586 316.198 2824.684 309.517 2828.605 C 306.415 2830.425 304.504 2833.789 304.504 2837.43 Z M 310.809 2837.43 C 310.869 2835.367 312.499 2833.711 314.526 2833.649 C 316.537 2833.718 318.137 2835.385 318.157 2837.43 C 318.126 2839.455 316.519 2841.088 314.526 2841.12 C 312.5 2841.099 310.855 2839.448 310.809 2837.389 Z" style="stroke: rgb(46, 186, 155); fill: rgb(46, 186, 155);"/>
  <path class="cls-47" d="M 314.897 2943.416 L 325.748 2932.053 C 326.531 2930.972 326.775 2929.582 326.409 2928.293 C 326.16 2926.993 325.433 2925.839 324.377 2925.063 C 323.286 2924.297 321.943 2924.001 320.639 2924.241 C 319.355 2924.501 318.203 2925.211 317.383 2926.247 L 314.798 2929.055 L 312.274 2926.177 C 311.37 2924.953 309.995 2924.183 308.495 2924.06 C 306.991 2923.99 305.539 2924.621 304.55 2925.775 C 303.568 2926.943 303.151 2928.495 303.415 2930.008 C 303.651 2931.472 304.46 2932.394 305.753 2933.738 Z" style="stroke: rgb(46, 186, 155); fill: rgb(46, 186, 155);"/>
  <line class="cls-75" x1="268.515" y1="2865.542" x2="298.868" y2="2847.408" style="stroke: rgb(46, 186, 155); stroke-width: 2;"/>
  <line class="cls-75" x1="268.515" y1="2876.022" x2="335.524" y2="2867.486" style="stroke: rgb(46, 186, 155); stroke-width: 2;"/>
  <line class="cls-75" x1="269.087" y1="2885.339" x2="335.524" y2="2903.973" style="stroke: rgb(46, 186, 155); stroke-width: 2;"/>
  <line class="cls-75" x1="267.943" y1="2895.819" x2="298.868" y2="2919.116" style="stroke: rgb(46, 186, 155); stroke-width: 2;"/>
</svg>