<?xml version="1.0" encoding="utf-8"?>
<svg viewBox="134.66 209 158.53 158.53" xmlns="http://www.w3.org/2000/svg">
  <defs>
    <style>.cls-1,.cls-14,.cls-51,.cls-52,.cls-68,.cls-69,.cls-70,.cls-74,.cls-75,.cls-82,.cls-83,.cls-86,.cls-89,.cls-90,.cls-94{fill:none;}.cls-2,.cls-33,.cls-34,.cls-35,.cls-36,.cls-53,.cls-58,.cls-71,.cls-84{fill:#3a4042;}.cls-3{opacity:0.1;}.cls-4,.cls-59,.cls-7,.cls-8{fill:#fff;}.cls-5{fill:url(#New_Pattern_Swatch_11);}.cls-6{clip-path:url(#clip-path);}.cls-67,.cls-69,.cls-7,.cls-74,.cls-99{fill-rule:evenodd;}.cls-76,.cls-8{font-size:18px;}.cls-15,.cls-23,.cls-28,.cls-54,.cls-58,.cls-59,.cls-76,.cls-77,.cls-8,.cls-84,.cls-87{font-family:SourceSansPro-Regular, Source Sans Pro;}.cls-9{letter-spacing:-0.03em;}.cls-10{letter-spacing:0em;}.cls-11{letter-spacing:-0.04em;}.cls-12,.cls-33{letter-spacing:-0.01em;}.cls-13{letter-spacing:-0.02em;}.cls-14{stroke:#fff;}.cls-14,.cls-51,.cls-52,.cls-53,.cls-68,.cls-69,.cls-70,.cls-74,.cls-75,.cls-82,.cls-83,.cls-86{stroke-miterlimit:10;}.cls-15,.cls-23,.cls-59{font-size:38px;}.cls-15{fill:#1063d5;}.cls-16{letter-spacing:-0.01em;}.cls-17{letter-spacing:-0.01em;}.cls-18{letter-spacing:0em;}.cls-19{letter-spacing:0em;}.cls-20{letter-spacing:0em;}.cls-21{letter-spacing:-0.02em;}.cls-22{letter-spacing:-0.02em;}.cls-23,.cls-28,.cls-95,.cls-97,.cls-99{fill:#007aff;}.cls-24{letter-spacing:-0.02em;}.cls-25{letter-spacing:-0.02em;}.cls-26{letter-spacing:-0.01em;}.cls-27{letter-spacing:-0.01em;}.cls-28{font-size:27px;}.cls-29{letter-spacing:-0.02em;}.cls-30{letter-spacing:-0.01em;}.cls-31,.cls-71{letter-spacing:-0.02em;}.cls-32{letter-spacing:0em;}.cls-34{letter-spacing:-0.01em;}.cls-35{letter-spacing:0.01em;}.cls-36,.cls-65{letter-spacing:-0.01em;}.cls-37{letter-spacing:0em;}.cls-38{letter-spacing:-0.01em;}.cls-39{letter-spacing:-0.02em;}.cls-40{letter-spacing:0em;}.cls-41{letter-spacing:0.01em;}.cls-42{letter-spacing:-0.03em;}.cls-43{letter-spacing:0em;}.cls-44{letter-spacing:0.02em;}.cls-45{letter-spacing:-0.02em;}.cls-46{letter-spacing:-0.04em;}.cls-47,.cls-54,.cls-67,.cls-76,.cls-77,.cls-87,.cls-91{fill:#3eb;}.cls-48{letter-spacing:-0.02em;}.cls-49{letter-spacing:-0.01em;}.cls-50{letter-spacing:-0.05em;}.cls-51,.cls-74,.cls-83{stroke:#007aff;}.cls-51,.cls-52{stroke-width:3px;}.cls-52,.cls-53,.cls-68,.cls-69,.cls-70,.cls-75,.cls-82,.cls-86,.cls-94{stroke:#3eb;}.cls-54,.cls-84{font-size:21px;}.cls-55{letter-spacing:-0.02em;}.cls-56{letter-spacing:-0.01em;}.cls-57{letter-spacing:0em;}.cls-58,.cls-77{font-size:17px;}.cls-60{letter-spacing:0em;}.cls-61{letter-spacing:-0.02em;}.cls-62{letter-spacing:0.01em;}.cls-63{letter-spacing:-0.05em;}.cls-64{letter-spacing:-0.02em;}.cls-66{letter-spacing:0.02em;}.cls-68{stroke-dasharray:1 2;}.cls-72{letter-spacing:-0.02em;}.cls-73{letter-spacing:0.01em;}.cls-75{stroke-dasharray:2.32 4.65;}.cls-78{letter-spacing:0em;}.cls-79{letter-spacing:-0.01em;}.cls-80{letter-spacing:-0.01em;}.cls-81{letter-spacing:-0.01em;}.cls-82{stroke-dasharray:2.31 4.62;}.cls-85{letter-spacing:-0.01em;}.cls-86{stroke-dasharray:3 4;}.cls-87{font-size:12px;}.cls-88{letter-spacing:-0.01em;}.cls-89,.cls-90{stroke:#ccc;}.cls-89,.cls-90,.cls-94{stroke-linecap:round;stroke-linejoin:round;}.cls-89,.cls-94{stroke-width:8px;}.cls-90{stroke-width:7.71px;}.cls-91,.cls-95{font-size:9.37px;font-family:SourceSansPro-Bold, Source Sans Pro;font-weight:700;}.cls-92{letter-spacing:-0.02em;}.cls-93{letter-spacing:-0.02em;}.cls-96{letter-spacing:-0.04em;}.cls-98{letter-spacing:-0.07em;}</style>
    <pattern id="pattern-0" x="0" y="0" width="20" height="20" patternUnits="userSpaceOnUse" viewBox="0 0 100 100">
      <path d="M 0 0 L 50 0 L 50 100 L 0 100 Z" style="fill: black;"/>
    </pattern>
    <linearGradient id="gradient-2" gradientUnits="userSpaceOnUse" x1="373.805" y1="438.84" x2="373.805" y2="524.08" gradientTransform="matrix(0.388343, 0.921516, -1.823817, 0.768591, 1108.240147, -242.915467)">
      <stop offset="0" style="stop-color: rgb(59, 114, 189);"/>
      <stop offset="1" style="stop-color: rgb(46, 186, 155);"/>
    </linearGradient>
  </defs>
  <path class="cls-7" d="M325.32,496.41c9.24,0,14.16-5.23,14.16-11.39,0-7.08-5.54-9.24-10.47-11.08-4-1.54-7.69-2.77-7.69-5.54,0-2.46,1.85-4,5.54-4a13.72,13.72,0,0,1,8,3.08l4-5.23a19.33,19.33,0,0,0-12.31-4.62c-8.31,0-13.54,4.62-13.54,11.08,0,6.16,5.54,8.93,10.47,10.78,4,1.54,8,2.77,8,5.85,0,2.77-1.85,4.61-5.85,4.61a15.07,15.07,0,0,1-10.16-4.31l-4.31,5.55a22.84,22.84,0,0,0,14.16,5.23ZM399.82,521s24.93,3.08,34.79-14.16h8.31a10.25,10.25,0,0,0,10.15-10.16V449a10.25,10.25,0,0,0-10.15-10.16H304.69A10.25,10.25,0,0,0,294.54,449v47.72a10.25,10.25,0,0,0,10.15,10.16H408.13c5.55-2.77,10.47-8,11.7-11.7l-14.47-36.64h8.93l6.16,18.16c1.23,3.39,2.15,6.78,3.38,10.47h.31c.93-3.38,1.85-7.07,2.77-10.47l5.54-18.16h8.31L427.53,497c-4,11.39-19.71,21.24-27.71,24Zm-40.94-24.63a26.47,26.47,0,0,0,7.39-1.23l-1.54-6.47a13.24,13.24,0,0,1-3.7.61c-3.69,0-5.23-1.85-5.23-6.15V465.62H365v-7.08H355.8v-9.85h-7.39l-.92,9.85-5.54.62v6.47h5.23v17.55c0,7.69,3.08,13.24,11.7,13.24Zm21.24,0c4.31,0,8.31-2.15,11.39-4.92h.31l.62,4h7.08V473.63c0-10.16-4.31-16-13.54-16-5.85,0-11.08,2.47-15.09,4.93l3.08,5.85c3.38-2.15,6.77-3.7,10.16-3.7,5.23,0,6.78,3.39,6.78,7.08-15.09,1.85-21.55,5.85-21.55,13.85,0,6.47,4.31,10.78,10.78,10.78Zm2.77-6.78c-3.08,0-5.23-1.54-5.23-4.61,0-3.69,3.39-6.46,13.24-7.69v8.31c-2.77,2.46-4.93,4-8,4Z" transform="matrix(0.9999999999999999, 0, 0, 0.9999999999999999, -159.8800048828125, -188.1199951171875)" style="fill: url(#gradient-2);"/>
</svg>