<?xml version="1.0" encoding="utf-8"?>
<svg width="333.2872619628906" height="200.27001953125" viewBox="233.003 1128.71 333.287 200.27" xmlns="http://www.w3.org/2000/svg">
  <defs>
    <style>.cls-1,.cls-14,.cls-51,.cls-52,.cls-68,.cls-69,.cls-70,.cls-74,.cls-75,.cls-82,.cls-83,.cls-86,.cls-89,.cls-90,.cls-94{fill:none;}.cls-2,.cls-33,.cls-34,.cls-35,.cls-36,.cls-53,.cls-58,.cls-71,.cls-84{fill:#3a4042;}.cls-3{opacity:0.1;}.cls-4,.cls-59,.cls-7,.cls-8{fill:#fff;}.cls-5{fill:url(#New_Pattern_Swatch_11);}.cls-6{clip-path:url(#clip-path);}.cls-67,.cls-69,.cls-7,.cls-74,.cls-99{fill-rule:evenodd;}.cls-76,.cls-8{font-size:18px;}.cls-15,.cls-23,.cls-28,.cls-54,.cls-58,.cls-59,.cls-76,.cls-77,.cls-8,.cls-84,.cls-87{font-family:SourceSansPro-Regular, Source Sans Pro;}.cls-9{letter-spacing:-0.03em;}.cls-10{letter-spacing:0em;}.cls-11{letter-spacing:-0.04em;}.cls-12,.cls-33{letter-spacing:-0.01em;}.cls-13{letter-spacing:-0.02em;}.cls-14{stroke:#fff;}.cls-14,.cls-51,.cls-52,.cls-53,.cls-68,.cls-69,.cls-70,.cls-74,.cls-75,.cls-82,.cls-83,.cls-86{stroke-miterlimit:10;}.cls-15,.cls-23,.cls-59{font-size:38px;}.cls-15{fill:#1063d5;}.cls-16{letter-spacing:-0.01em;}.cls-17{letter-spacing:-0.01em;}.cls-18{letter-spacing:0em;}.cls-19{letter-spacing:0em;}.cls-20{letter-spacing:0em;}.cls-21{letter-spacing:-0.02em;}.cls-22{letter-spacing:-0.02em;}.cls-23,.cls-28,.cls-95,.cls-97,.cls-99{fill:#007aff;}.cls-24{letter-spacing:-0.02em;}.cls-25{letter-spacing:-0.02em;}.cls-26{letter-spacing:-0.01em;}.cls-27{letter-spacing:-0.01em;}.cls-28{font-size:27px;}.cls-29{letter-spacing:-0.02em;}.cls-30{letter-spacing:-0.01em;}.cls-31,.cls-71{letter-spacing:-0.02em;}.cls-32{letter-spacing:0em;}.cls-34{letter-spacing:-0.01em;}.cls-35{letter-spacing:0.01em;}.cls-36,.cls-65{letter-spacing:-0.01em;}.cls-37{letter-spacing:0em;}.cls-38{letter-spacing:-0.01em;}.cls-39{letter-spacing:-0.02em;}.cls-40{letter-spacing:0em;}.cls-41{letter-spacing:0.01em;}.cls-42{letter-spacing:-0.03em;}.cls-43{letter-spacing:0em;}.cls-44{letter-spacing:0.02em;}.cls-45{letter-spacing:-0.02em;}.cls-46{letter-spacing:-0.04em;}.cls-47,.cls-54,.cls-67,.cls-76,.cls-77,.cls-87,.cls-91{fill:#3eb;}.cls-48{letter-spacing:-0.02em;}.cls-49{letter-spacing:-0.01em;}.cls-50{letter-spacing:-0.05em;}.cls-51,.cls-74,.cls-83{stroke:#007aff;}.cls-51,.cls-52{stroke-width:3px;}.cls-52,.cls-53,.cls-68,.cls-69,.cls-70,.cls-75,.cls-82,.cls-86,.cls-94{stroke:#3eb;}.cls-54,.cls-84{font-size:21px;}.cls-55{letter-spacing:-0.02em;}.cls-56{letter-spacing:-0.01em;}.cls-57{letter-spacing:0em;}.cls-58,.cls-77{font-size:17px;}.cls-60{letter-spacing:0em;}.cls-61{letter-spacing:-0.02em;}.cls-62{letter-spacing:0.01em;}.cls-63{letter-spacing:-0.05em;}.cls-64{letter-spacing:-0.02em;}.cls-66{letter-spacing:0.02em;}.cls-68{stroke-dasharray:1 2;}.cls-72{letter-spacing:-0.02em;}.cls-73{letter-spacing:0.01em;}.cls-75{stroke-dasharray:2.32 4.65;}.cls-78{letter-spacing:0em;}.cls-79{letter-spacing:-0.01em;}.cls-80{letter-spacing:-0.01em;}.cls-81{letter-spacing:-0.01em;}.cls-82{stroke-dasharray:2.31 4.62;}.cls-85{letter-spacing:-0.01em;}.cls-86{stroke-dasharray:3 4;}.cls-87{font-size:12px;}.cls-88{letter-spacing:-0.01em;}.cls-89,.cls-90{stroke:#ccc;}.cls-89,.cls-90,.cls-94{stroke-linecap:round;stroke-linejoin:round;}.cls-89,.cls-94{stroke-width:8px;}.cls-90{stroke-width:7.71px;}.cls-91,.cls-95{font-size:9.37px;font-family:SourceSansPro-Bold, Source Sans Pro;font-weight:700;}.cls-92{letter-spacing:-0.02em;}.cls-93{letter-spacing:-0.02em;}.cls-96{letter-spacing:-0.04em;}.cls-98{letter-spacing:-0.07em;}</style>
  </defs>
  <line class="cls-52" x1="358.923" y1="1326.264" x2="447.488" y2="1326.264" style="stroke: rgb(46, 186, 155); stroke-width: 4;"/>
  <path class="cls-67" d="M 254.108 1194.2 L 238.186 1194.2 C 235.904 1194.112 234.05 1196.006 234.206 1198.264 L 234.206 1216.148 C 234.206 1218.338 235.598 1219.847 238.186 1219.847 L 242.784 1219.847 C 245.092 1222.195 248.287 1225.894 249.6 1227.443 C 251.719 1228.538 251.003 1226.141 251.003 1226.141 L 251.003 1219.847 L 261.82 1219.847 C 264.407 1219.847 265.87 1218.713 265.87 1216.513 L 265.87 1212.942 L 259.183 1212.942 C 256.38 1212.942 254.108 1210.69 254.108 1207.911 Z" style="stroke: rgb(46, 186, 155); fill: rgb(46, 186, 155);"/>
  <path class="cls-67" d="M 262.069 1183.349 C 259.481 1183.349 257.322 1185.184 257.322 1187.374 L 257.322 1206.116 C 257.322 1208.316 259.402 1209.943 261.999 1209.943 L 272.189 1209.943 L 272.189 1215.862 C 272.189 1215.862 271.821 1217.953 273.592 1217.046 C 274.906 1215.497 278.1 1212.291 280.408 1209.943 L 284.26 1209.943 C 286.847 1209.943 288.986 1208.316 288.986 1206.116 L 288.986 1187.374 C 288.986 1185.184 286.827 1183.349 284.24 1183.349 Z" style="stroke: rgb(46, 186, 155); fill: rgb(46, 186, 155);"/>
  <path class="cls-67" d="M 359.667 1158.713 C 359.193 1159.005 358.546 1159.152 357.891 1159.116 C 356.477 1159.116 356.116 1158.713 356.116 1158.713 L 350.269 1154.95 L 338.045 1168.727 C 338.948 1168.989 339.929 1169.123 340.919 1169.122 L 374.743 1169.122 C 375.767 1169.124 376.782 1168.981 377.713 1168.704 L 365.513 1154.989 Z M 346.524 1152.553 L 333.671 1144.299 L 333.671 1164.468 C 333.67 1165.109 333.881 1165.744 334.287 1166.331 Z M 381.422 1166.245 C 381.794 1165.683 381.989 1165.079 381.99 1164.468 L 381.99 1144.378 L 369.27 1152.553 Z M 334.747 1140.335 L 357.891 1155.199 L 380.962 1140.382 C 379.668 1138.959 377.307 1138.077 374.743 1138.054 L 340.919 1138.054 C 338.382 1138.068 336.041 1138.933 334.747 1140.335 Z" style="stroke: rgb(46, 186, 155); fill: rgb(46, 186, 155);"/>
  <path class="cls-67" d="M 438.263 1146.959 C 438.263 1146.959 445.726 1147.206 443.925 1139.068 C 442.124 1133.642 438.263 1132.044 438.263 1132.044 C 438.263 1132.044 432.292 1128.71 428.432 1136.72 C 424.889 1144.099 430.8 1157.07 436.153 1162.624 C 441.507 1168.177 453.677 1176.167 463.141 1170.634 C 470.107 1166.569 465.818 1161.509 465.818 1161.509 C 464.363 1159.564 462.346 1158.103 460.036 1157.317 C 456.653 1156.074 454.493 1157.198 452.443 1161.943 C 448.334 1161.322 438.641 1151.398 438.263 1146.959 Z" style="stroke: rgb(46, 186, 155); fill: rgb(46, 186, 155);"/>
  <rect class="cls-47" x="528.102" y="1214.382" width="37.645" height="13.347" rx="3.08" ry="3.08" style="stroke: rgb(46, 186, 155); fill: rgb(46, 186, 155);"/>
  <rect class="cls-47" x="528.102" y="1171.137" width="37.645" height="19.857" rx="3.75" ry="3.75" style="stroke: rgb(46, 186, 155); fill: rgb(46, 186, 155);"/>
  <rect class="cls-47" x="513.329" y="1184.194" width="37.645" height="8.493" rx="2.45" ry="2.45" style="stroke: rgb(46, 186, 155); fill: rgb(46, 186, 155);" transform="matrix(0.999998, 0, 0, 1, 2.226052, 15.322632)"/>
  <circle class="cls-47" cx="519.6" cy="1224.17" r="4.92" style="stroke: rgb(46, 186, 155); fill: rgb(46, 186, 155);" transform="matrix(0.995112, 0, 0, 0.98644, 2.225247, 15.305514)"/>
  <path class="cls-7" d="M 517.912 1221.268 C 517.912 1222.315 519.056 1222.97 519.972 1222.447 C 520.396 1222.203 520.659 1221.754 520.659 1221.268 C 520.659 1220.22 519.514 1219.565 518.598 1220.089 C 518.174 1220.332 517.912 1220.781 517.912 1221.268 Z M 516.608 1225.657 C 516.608 1225.716 516.608 1225.825 516.608 1225.825 L 521.952 1225.825 C 521.952 1225.766 521.952 1225.716 521.952 1225.657 C 522.023 1224.187 520.776 1222.988 519.295 1223.102 C 517.801 1222.955 516.528 1224.162 516.608 1225.647 Z" style="stroke: rgb(46, 186, 155);"/>
  <circle class="cls-47" cx="519.6" cy="1186.93" r="4.92" style="stroke: rgb(46, 186, 155); fill: rgb(46, 186, 155);" transform="matrix(0.995112, 0, 0, 0.98644, 2.225247, 15.305514)"/>
  <path class="cls-7" d="M 517.912 1184.523 C 517.912 1185.571 519.056 1186.225 519.972 1185.702 C 520.396 1185.458 520.659 1185.009 520.659 1184.523 C 520.659 1183.475 519.514 1182.82 518.598 1183.344 C 518.174 1183.587 517.912 1184.036 517.912 1184.523 Z M 516.608 1188.912 C 516.608 1188.972 516.608 1189.08 516.608 1189.08 L 521.952 1189.08 C 521.952 1189.021 521.952 1188.972 521.952 1188.912 C 522.023 1187.442 520.776 1186.243 519.295 1186.358 C 517.797 1186.209 516.522 1187.423 516.608 1188.912 Z" style="stroke: rgb(46, 186, 155);"/>
  <circle class="cls-47" cx="561.37" cy="1204.18" r="4.92" style="stroke: rgb(46, 186, 155); fill: rgb(46, 186, 155);" transform="matrix(0.995112, 0, 0, 0.98644, 2.225247, 15.305514)"/>
  <path class="cls-7" d="M 559.477 1201.539 C 559.477 1202.587 560.622 1203.242 561.538 1202.718 C 561.962 1202.475 562.224 1202.025 562.224 1201.539 C 562.224 1200.491 561.08 1199.836 560.164 1200.36 C 559.74 1200.603 559.477 1201.052 559.477 1201.539 Z M 558.174 1205.928 C 558.174 1205.988 558.174 1206.096 558.174 1206.096 L 563.518 1206.096 C 563.518 1206.037 563.518 1205.988 563.518 1205.928 C 563.589 1204.458 562.342 1203.259 560.861 1203.374 C 559.363 1203.226 558.087 1204.439 558.174 1205.928 Z" style="stroke: rgb(46, 186, 155);"/>
  <line class="cls-68" x1="296.41" y1="1215.428" x2="353.121" y2="1245.475" style="stroke-width: 2; stroke: rgb(46, 186, 155);"/>
  <polygon class="cls-47" points="297.355 1217.825 296.668 1215.566 298.948 1214.875 297.684 1214.205 295.405 1214.895 296.101 1217.154 297.355 1217.825" style="stroke: rgb(46, 186, 155);"/>
  <line class="cls-68" x1="367.959" y1="1182.372" x2="384.885" y2="1217.854" style="stroke-width: 2; stroke: rgb(46, 186, 155);"/>
  <polygon class="cls-47" points="367.272 1184.858 368.078 1182.639 370.327 1183.428 369.71 1182.145 367.471 1181.356 366.665 1183.576 367.272 1184.858" style="stroke: rgb(46, 186, 155);"/>
  <line class="cls-68" x1="507.852" y1="1215.428" x2="451.14" y2="1245.475" style="stroke-width: 2; stroke: rgb(46, 186, 155);"/>
  <polygon class="cls-47" points="505.314 1214.875 507.592 1215.566 506.896 1217.825 508.16 1217.154 508.856 1214.895 506.568 1214.205 505.314 1214.875" style="stroke: rgb(46, 186, 155);"/>
  <line class="cls-68" x1="436.303" y1="1182.372" x2="419.376" y2="1217.854" style="stroke-width: 2; stroke: rgb(46, 186, 155);"/>
  <polygon class="cls-47" points="433.935 1183.428 436.183 1182.639 436.98 1184.858 437.597 1183.576 436.79 1181.356 434.552 1182.145 433.935 1183.428" style="stroke: rgb(46, 186, 155);"/>
  <path class="cls-69" d="M 369.83 1296.148 C 346.526 1270.968 359.459 1230.223 393.11 1222.808 C 426.76 1215.392 455.889 1246.868 445.543 1279.464 C 443.632 1285.483 440.448 1291.03 436.203 1295.734" style="stroke: rgb(46, 186, 155); stroke-width: 2;"/>
  <path class="cls-70" d="M 384.069 1259.482 C 381.44 1259.696 379.435 1261.908 379.502 1264.523 C 379.319 1267.018 381.413 1269.094 383.93 1268.913 C 383.93 1268.913 384.318 1287.26 402.31 1287.26 C 420.301 1287.26 421.864 1268.784 421.864 1268.784 C 421.864 1268.784 426.292 1268.784 426.292 1264.523 C 426.292 1260.261 421.864 1259.482 421.864 1259.482 L 421.864 1253.662 L 413.256 1247.329 C 413.256 1247.329 411.435 1256.119 401.135 1257.411 C 395.063 1258.197 388.924 1256.569 384.059 1252.883 Z" style="stroke: rgb(46, 186, 155); stroke-width: 2;"/>
  <path class="cls-70" d="M 395.533 1288.306 C 395.533 1288.306 397.981 1289.825 402.927 1289.825 C 405.556 1289.819 408.159 1289.303 410.589 1288.306 C 410.589 1288.306 410.102 1295.547 402.927 1295.547 C 395.752 1295.547 395.533 1288.306 395.533 1288.306 Z" style="stroke: rgb(46, 186, 155); stroke-width: 2;"/>
  <path class="cls-70" d="M 392.796 1286.106 C 392.796 1286.106 391.98 1298.249 402.937 1298.249 C 413.893 1298.249 413.266 1286.106 413.266 1286.106 C 413.266 1286.106 426.819 1289.727 430.87 1301.998 C 422.66 1307.611 412.909 1310.589 402.937 1310.531 C 397.065 1310.531 383.034 1308.459 374.815 1301.998 C 378.328 1290.111 392.796 1286.106 392.796 1286.106 Z" style="stroke: rgb(46, 186, 155); stroke-width: 2;"/>
  <path class="cls-70" d="M 384.069 1259.482 L 384.069 1252.893 C 388.934 1256.579 395.073 1258.207 401.145 1257.421 C 411.445 1256.128 413.266 1247.339 413.266 1247.339 L 421.874 1253.672 L 421.874 1259.492 C 422.992 1259.738 424.023 1260.276 424.859 1261.051 L 424.968 1261.051 C 424.968 1261.051 424.71 1257.953 424.71 1249.292 C 424.71 1240.631 415.067 1235.591 415.067 1235.591 C 415.067 1235.591 418.192 1234.298 416.062 1228.617 C 414.371 1233.006 396.638 1229.603 389.334 1234.042 C 382.03 1238.481 380.994 1248 380.994 1248 L 380.994 1260.666 L 381.044 1260.755 C 381.908 1260.051 382.958 1259.609 384.069 1259.482 Z" style="stroke: rgb(46, 186, 155); stroke-width: 2;"/>
</svg>