<?xml version="1.0" encoding="utf-8"?>
<svg width="474.4100341796875" height="85.240966796875" viewBox="12.253 -927.042 474.41 85.241" xmlns="http://www.w3.org/2000/svg">
  <defs>
    <style>.cls-1,.cls-14,.cls-51,.cls-52,.cls-68,.cls-69,.cls-70,.cls-74,.cls-75,.cls-82,.cls-83,.cls-86,.cls-89,.cls-90,.cls-94{fill:none;}.cls-2,.cls-33,.cls-34,.cls-35,.cls-36,.cls-53,.cls-58,.cls-71,.cls-84{fill:#3a4042;}.cls-3{opacity:0.1;}.cls-4,.cls-59,.cls-7,.cls-8{fill:#fff;}.cls-5{fill:url(#New_Pattern_Swatch_11);}.cls-6{clip-path:url(#clip-path);}.cls-67,.cls-69,.cls-7,.cls-74,.cls-99{fill-rule:evenodd;}.cls-76,.cls-8{font-size:18px;}.cls-15,.cls-23,.cls-28,.cls-54,.cls-58,.cls-59,.cls-76,.cls-77,.cls-8,.cls-84,.cls-87{font-family:SourceSansPro-Regular, Source Sans Pro;}.cls-9{letter-spacing:-0.03em;}.cls-10{letter-spacing:0em;}.cls-11{letter-spacing:-0.04em;}.cls-12,.cls-33{letter-spacing:-0.01em;}.cls-13{letter-spacing:-0.02em;}.cls-14{stroke:#fff;}.cls-14,.cls-51,.cls-52,.cls-53,.cls-68,.cls-69,.cls-70,.cls-74,.cls-75,.cls-82,.cls-83,.cls-86{stroke-miterlimit:10;}.cls-15,.cls-23,.cls-59{font-size:38px;}.cls-15{fill:#1063d5;}.cls-16{letter-spacing:-0.01em;}.cls-17{letter-spacing:-0.01em;}.cls-18{letter-spacing:0em;}.cls-19{letter-spacing:0em;}.cls-20{letter-spacing:0em;}.cls-21{letter-spacing:-0.02em;}.cls-22{letter-spacing:-0.02em;}.cls-23,.cls-28,.cls-95,.cls-97,.cls-99{fill:#007aff;}.cls-24{letter-spacing:-0.02em;}.cls-25{letter-spacing:-0.02em;}.cls-26{letter-spacing:-0.01em;}.cls-27{letter-spacing:-0.01em;}.cls-28{font-size:27px;}.cls-29{letter-spacing:-0.02em;}.cls-30{letter-spacing:-0.01em;}.cls-31,.cls-71{letter-spacing:-0.02em;}.cls-32{letter-spacing:0em;}.cls-34{letter-spacing:-0.01em;}.cls-35{letter-spacing:0.01em;}.cls-36,.cls-65{letter-spacing:-0.01em;}.cls-37{letter-spacing:0em;}.cls-38{letter-spacing:-0.01em;}.cls-39{letter-spacing:-0.02em;}.cls-40{letter-spacing:0em;}.cls-41{letter-spacing:0.01em;}.cls-42{letter-spacing:-0.03em;}.cls-43{letter-spacing:0em;}.cls-44{letter-spacing:0.02em;}.cls-45{letter-spacing:-0.02em;}.cls-46{letter-spacing:-0.04em;}.cls-47,.cls-54,.cls-67,.cls-76,.cls-77,.cls-87,.cls-91{fill:#3eb;}.cls-48{letter-spacing:-0.02em;}.cls-49{letter-spacing:-0.01em;}.cls-50{letter-spacing:-0.05em;}.cls-51,.cls-74,.cls-83{stroke:#007aff;}.cls-51,.cls-52{stroke-width:3px;}.cls-52,.cls-53,.cls-68,.cls-69,.cls-70,.cls-75,.cls-82,.cls-86,.cls-94{stroke:#3eb;}.cls-54,.cls-84{font-size:21px;}.cls-55{letter-spacing:-0.02em;}.cls-56{letter-spacing:-0.01em;}.cls-57{letter-spacing:0em;}.cls-58,.cls-77{font-size:17px;}.cls-60{letter-spacing:0em;}.cls-61{letter-spacing:-0.02em;}.cls-62{letter-spacing:0.01em;}.cls-63{letter-spacing:-0.05em;}.cls-64{letter-spacing:-0.02em;}.cls-66{letter-spacing:0.02em;}.cls-68{stroke-dasharray:1 2;}.cls-72{letter-spacing:-0.02em;}.cls-73{letter-spacing:0.01em;}.cls-75{stroke-dasharray:2.32 4.65;}.cls-78{letter-spacing:0em;}.cls-79{letter-spacing:-0.01em;}.cls-80{letter-spacing:-0.01em;}.cls-81{letter-spacing:-0.01em;}.cls-82{stroke-dasharray:2.31 4.62;}.cls-85{letter-spacing:-0.01em;}.cls-86{stroke-dasharray:3 4;}.cls-87{font-size:12px;}.cls-88{letter-spacing:-0.01em;}.cls-89,.cls-90{stroke:#ccc;}.cls-89,.cls-90,.cls-94{stroke-linecap:round;stroke-linejoin:round;}.cls-89,.cls-94{stroke-width:8px;}.cls-90{stroke-width:7.71px;}.cls-91,.cls-95{font-size:9.37px;font-family:SourceSansPro-Bold, Source Sans Pro;font-weight:700;}.cls-92{letter-spacing:-0.02em;}.cls-93{letter-spacing:-0.02em;}.cls-96{letter-spacing:-0.04em;}.cls-98{letter-spacing:-0.07em;}</style>
  </defs>
  <path class="cls-7" d="M 43.033 -869.471 C 52.273 -869.471 57.193 -874.701 57.193 -880.861 C 57.193 -887.941 51.653 -890.101 46.723 -891.941 C 42.723 -893.481 39.033 -894.711 39.033 -897.481 C 39.033 -899.941 40.883 -901.481 44.573 -901.481 C 47.5 -901.336 50.304 -900.256 52.573 -898.401 L 56.573 -903.631 C 53.136 -906.563 48.78 -908.197 44.263 -908.251 C 35.953 -908.251 30.723 -903.631 30.723 -897.172 C 30.723 -891.011 36.263 -888.241 41.193 -886.391 C 45.193 -884.851 49.193 -883.621 49.193 -880.542 C 49.193 -877.771 47.343 -875.931 43.343 -875.931 C 39.533 -876.032 35.903 -877.572 33.183 -880.241 L 28.873 -874.691 C 32.864 -871.394 37.857 -869.55 43.033 -869.461 Z M 117.533 -844.881 C 117.533 -844.881 142.463 -841.801 152.323 -859.042 L 160.633 -859.042 C 166.22 -859.096 170.734 -863.615 170.783 -869.201 L 170.783 -916.881 C 170.734 -922.468 166.22 -926.987 160.633 -927.042 L 22.403 -927.042 C 16.816 -926.987 12.302 -922.468 12.253 -916.881 L 12.253 -869.161 C 12.302 -863.574 16.816 -859.056 22.403 -859.001 L 125.843 -859.001 C 131.393 -861.771 136.313 -867.001 137.543 -870.701 L 123.073 -907.341 L 132.003 -907.341 L 138.163 -889.181 C 139.393 -885.792 140.313 -882.401 141.543 -878.711 L 141.853 -878.711 C 142.783 -882.091 143.703 -885.781 144.623 -889.181 L 150.163 -907.341 L 158.473 -907.341 L 145.243 -868.881 C 141.243 -857.491 125.533 -847.641 117.533 -844.881 Z M 76.593 -869.511 C 79.102 -869.569 81.591 -869.983 83.983 -870.741 L 82.443 -877.211 C 81.245 -876.834 79.999 -876.628 78.743 -876.601 C 75.053 -876.601 73.513 -878.451 73.513 -882.751 L 73.513 -900.261 L 82.713 -900.261 L 82.713 -907.341 L 73.513 -907.341 L 73.513 -917.191 L 66.123 -917.191 L 65.203 -907.341 L 59.663 -906.721 L 59.663 -900.251 L 64.893 -900.251 L 64.893 -882.701 C 64.893 -875.011 67.973 -869.461 76.593 -869.461 Z M 97.833 -869.511 C 102.143 -869.511 106.143 -871.661 109.223 -874.431 L 109.533 -874.431 L 110.153 -870.431 L 117.233 -870.431 L 117.233 -892.251 C 117.233 -902.411 112.923 -908.251 103.693 -908.251 C 97.843 -908.251 92.613 -905.781 88.603 -903.321 L 91.683 -897.471 C 95.063 -899.621 98.453 -901.172 101.843 -901.172 C 107.073 -901.172 108.623 -897.781 108.623 -894.091 C 93.533 -892.241 87.073 -888.241 87.073 -880.241 C 87.073 -873.771 91.383 -869.461 97.853 -869.461 Z M 100.603 -876.292 C 97.523 -876.292 95.373 -877.831 95.373 -880.901 C 95.373 -884.591 98.763 -887.361 108.613 -888.591 L 108.613 -880.281 C 105.843 -877.821 103.683 -876.281 100.613 -876.281 Z" transform="matrix(0.9999999999999999, 0, 0, 0.9999999999999999, -1.4210854715202004e-14, 0)"/>
  <path class="cls-4" d="M 192.653 -869.471 C 196.653 -869.471 200.353 -871.621 203.123 -874.391 L 203.433 -874.391 L 204.053 -870.391 L 211.133 -870.391 L 211.133 -923.391 L 202.513 -923.391 L 202.513 -910.151 L 202.823 -903.991 C 200.053 -906.451 197.283 -908.302 193.283 -908.302 C 185.283 -908.302 177.583 -900.911 177.583 -888.911 C 177.583 -876.601 183.423 -869.511 192.663 -869.511 Z M 194.803 -876.561 C 189.573 -876.561 186.493 -880.871 186.493 -888.871 C 186.493 -896.561 190.193 -900.871 195.113 -900.871 C 197.904 -900.949 200.594 -899.828 202.503 -897.792 L 202.503 -880.881 C 200.043 -877.802 197.573 -876.571 194.803 -876.571 Z M 237.903 -869.471 C 242.413 -869.524 246.806 -870.916 250.523 -873.471 L 247.443 -879.021 C 245.057 -877.202 242.134 -876.227 239.133 -876.251 C 232.973 -876.251 228.973 -879.941 228.053 -886.401 L 251.453 -886.401 C 251.879 -887.798 252.088 -889.252 252.073 -890.711 C 252.073 -900.871 246.533 -908.261 236.683 -908.261 C 228.053 -908.261 219.713 -900.881 219.713 -888.881 C 219.713 -876.571 227.713 -869.481 237.873 -869.481 Z M 228.053 -892.251 C 228.673 -898.101 232.673 -901.491 236.983 -901.491 C 241.913 -901.491 244.373 -898.101 244.373 -892.251 Z M 268.713 -869.471 C 270.207 -869.376 271.698 -869.694 273.023 -870.391 L 272.103 -876.552 L 270.563 -876.552 C 269.943 -876.552 268.713 -877.161 268.713 -879.321 L 268.713 -923.321 L 260.093 -923.321 L 260.093 -879.911 C 260.093 -873.441 262.553 -869.441 268.713 -869.441 Z M 280.413 -870.391 L 289.023 -870.391 L 289.023 -907.341 L 280.413 -907.341 Z M 284.713 -913.811 C 287.793 -913.811 290.263 -915.661 290.263 -918.431 C 290.245 -921.439 287.717 -923.821 284.713 -923.661 C 281.769 -923.8 279.344 -921.375 279.483 -918.431 C 279.483 -915.661 281.633 -913.811 284.713 -913.811 Z M 313.043 -854.091 C 325.043 -854.091 332.733 -859.931 332.733 -867.021 C 332.733 -873.481 328.123 -876.261 319.193 -876.261 L 312.713 -876.261 C 308.093 -876.261 306.553 -877.491 306.553 -879.641 C 306.523 -881.017 307.228 -882.305 308.403 -883.021 C 309.977 -882.419 311.648 -882.108 313.333 -882.101 C 321.333 -882.101 327.493 -886.411 327.493 -894.721 C 327.49 -896.958 326.733 -899.129 325.343 -900.881 L 332.113 -900.881 L 332.113 -907.341 L 318.873 -907.341 C 317.065 -907.848 315.208 -908.157 313.333 -908.261 C 305.633 -908.261 298.853 -903.331 298.853 -895.021 C 298.927 -891.16 300.739 -887.538 303.783 -885.161 L 303.783 -884.881 C 301.633 -883.341 299.463 -880.881 299.463 -878.111 C 299.405 -875.598 300.699 -873.247 302.853 -871.951 L 302.853 -871.641 C 299.463 -869.491 297.613 -866.721 297.613 -863.641 C 297.613 -857.172 304.083 -854.091 313.013 -854.091 Z M 313.353 -887.641 C 309.963 -887.641 306.883 -890.111 306.883 -895.031 C 306.883 -899.641 309.963 -902.111 313.353 -902.111 C 317.043 -902.111 319.813 -899.641 319.813 -895.031 C 319.813 -890.101 317.043 -887.641 313.353 -887.641 Z M 314.273 -859.641 C 308.423 -859.641 305.033 -861.792 305.033 -864.881 C 305.033 -866.731 305.653 -868.261 307.803 -869.802 C 309.431 -869.524 311.084 -869.421 312.733 -869.491 L 317.653 -869.491 C 321.963 -869.491 324.433 -868.571 324.433 -865.802 C 324.433 -862.411 320.113 -859.641 314.273 -859.641 Z M 339.203 -870.422 L 347.823 -870.422 L 347.823 -896.261 C 350.903 -899.031 353.053 -900.571 356.123 -900.571 C 360.123 -900.571 361.973 -898.411 361.973 -892.261 L 361.973 -870.401 L 370.593 -870.401 L 370.593 -893.491 C 370.593 -902.731 367.203 -908.271 359.203 -908.271 C 354.273 -908.271 350.583 -905.501 347.503 -902.731 L 347.813 -909.811 L 347.813 -923.351 L 339.193 -923.351 Z M 394.003 -869.501 C 396.512 -869.533 399 -869.947 401.383 -870.731 L 399.843 -877.201 C 398.648 -876.824 397.406 -876.619 396.153 -876.591 C 392.763 -876.591 390.913 -878.441 390.913 -882.741 L 390.913 -900.261 L 400.463 -900.261 L 400.463 -907.341 L 390.913 -907.341 L 390.913 -917.191 L 383.843 -917.191 L 382.613 -907.341 L 377.063 -906.721 L 377.063 -900.251 L 382.303 -900.251 L 382.303 -882.701 C 382.303 -875.011 385.383 -869.461 394.003 -869.461 Z M 409.703 -870.422 L 418.323 -870.422 L 418.323 -900.261 L 425.393 -900.261 L 425.393 -907.341 L 418.313 -907.341 L 418.313 -911.341 C 418.313 -915.341 419.853 -917.501 422.923 -917.501 C 424.308 -917.491 425.673 -917.177 426.923 -916.581 L 428.473 -923.042 C 426.308 -923.865 424.01 -924.285 421.693 -924.281 C 413.073 -924.281 409.693 -918.741 409.693 -911.042 L 409.693 -907.351 L 404.763 -906.731 L 404.763 -900.261 L 409.713 -900.261 Z M 442.953 -869.501 C 447.873 -869.501 451.573 -871.961 454.653 -875.971 L 454.963 -875.971 L 455.583 -870.422 L 462.663 -870.422 L 462.663 -907.341 L 454.043 -907.341 L 454.043 -882.091 C 451.273 -878.401 449.113 -876.861 445.733 -876.861 C 441.733 -876.861 440.193 -879.321 440.193 -885.161 L 440.193 -907.341 L 431.573 -907.341 L 431.573 -884.251 C 431.573 -874.711 434.953 -869.481 442.963 -869.481 Z M 482.043 -869.501 C 483.634 -869.448 485.215 -869.763 486.663 -870.422 L 485.433 -876.581 L 484.193 -876.581 C 483.273 -876.581 482.343 -877.191 482.343 -879.351 L 482.343 -923.351 L 473.413 -923.351 L 473.413 -879.941 C 473.413 -873.471 475.873 -869.471 482.023 -869.471 Z" transform="matrix(0.9999999999999999, 0, 0, 0.9999999999999999, -1.4210854715202004e-14, 0)"/>
</svg>
