<?xml version="1.0" encoding="utf-8"?>
<svg width="269.15997314453125" height="140.43017578125" viewBox="133.74 3029.88 269.16 140.43" xmlns="http://www.w3.org/2000/svg">
  <defs>
    <style>.cls-1,.cls-14,.cls-51,.cls-52,.cls-68,.cls-69,.cls-70,.cls-74,.cls-75,.cls-82,.cls-83,.cls-86,.cls-89,.cls-90,.cls-94{fill:none;}.cls-2,.cls-33,.cls-34,.cls-35,.cls-36,.cls-53,.cls-58,.cls-71,.cls-84{fill:#3a4042;}.cls-3{opacity:0.1;}.cls-4,.cls-59,.cls-7,.cls-8{fill:#fff;}.cls-5{fill:url(#New_Pattern_Swatch_11);}.cls-6{clip-path:url(#clip-path);}.cls-67,.cls-69,.cls-7,.cls-74,.cls-99{fill-rule:evenodd;}.cls-76,.cls-8{font-size:18px;}.cls-15,.cls-23,.cls-28,.cls-54,.cls-58,.cls-59,.cls-76,.cls-77,.cls-8,.cls-84,.cls-87{font-family:SourceSansPro-Regular, Source Sans Pro;}.cls-9{letter-spacing:-0.03em;}.cls-10{letter-spacing:0em;}.cls-11{letter-spacing:-0.04em;}.cls-12,.cls-33{letter-spacing:-0.01em;}.cls-13{letter-spacing:-0.02em;}.cls-14{stroke:#fff;}.cls-14,.cls-51,.cls-52,.cls-53,.cls-68,.cls-69,.cls-70,.cls-74,.cls-75,.cls-82,.cls-83,.cls-86{stroke-miterlimit:10;}.cls-15,.cls-23,.cls-59{font-size:38px;}.cls-15{fill:#1063d5;}.cls-16{letter-spacing:-0.01em;}.cls-17{letter-spacing:-0.01em;}.cls-18{letter-spacing:0em;}.cls-19{letter-spacing:0em;}.cls-20{letter-spacing:0em;}.cls-21{letter-spacing:-0.02em;}.cls-22{letter-spacing:-0.02em;}.cls-23,.cls-28,.cls-95,.cls-97,.cls-99{fill:#007aff;}.cls-24{letter-spacing:-0.02em;}.cls-25{letter-spacing:-0.02em;}.cls-26{letter-spacing:-0.01em;}.cls-27{letter-spacing:-0.01em;}.cls-28{font-size:27px;}.cls-29{letter-spacing:-0.02em;}.cls-30{letter-spacing:-0.01em;}.cls-31,.cls-71{letter-spacing:-0.02em;}.cls-32{letter-spacing:0em;}.cls-34{letter-spacing:-0.01em;}.cls-35{letter-spacing:0.01em;}.cls-36,.cls-65{letter-spacing:-0.01em;}.cls-37{letter-spacing:0em;}.cls-38{letter-spacing:-0.01em;}.cls-39{letter-spacing:-0.02em;}.cls-40{letter-spacing:0em;}.cls-41{letter-spacing:0.01em;}.cls-42{letter-spacing:-0.03em;}.cls-43{letter-spacing:0em;}.cls-44{letter-spacing:0.02em;}.cls-45{letter-spacing:-0.02em;}.cls-46{letter-spacing:-0.04em;}.cls-47,.cls-54,.cls-67,.cls-76,.cls-77,.cls-87,.cls-91{fill:#3eb;}.cls-48{letter-spacing:-0.02em;}.cls-49{letter-spacing:-0.01em;}.cls-50{letter-spacing:-0.05em;}.cls-51,.cls-74,.cls-83{stroke:#007aff;}.cls-51,.cls-52{stroke-width:3px;}.cls-52,.cls-53,.cls-68,.cls-69,.cls-70,.cls-75,.cls-82,.cls-86,.cls-94{stroke:#3eb;}.cls-54,.cls-84{font-size:21px;}.cls-55{letter-spacing:-0.02em;}.cls-56{letter-spacing:-0.01em;}.cls-57{letter-spacing:0em;}.cls-58,.cls-77{font-size:17px;}.cls-60{letter-spacing:0em;}.cls-61{letter-spacing:-0.02em;}.cls-62{letter-spacing:0.01em;}.cls-63{letter-spacing:-0.05em;}.cls-64{letter-spacing:-0.02em;}.cls-66{letter-spacing:0.02em;}.cls-68{stroke-dasharray:1 2;}.cls-72{letter-spacing:-0.02em;}.cls-73{letter-spacing:0.01em;}.cls-75{stroke-dasharray:2.32 4.65;}.cls-78{letter-spacing:0em;}.cls-79{letter-spacing:-0.01em;}.cls-80{letter-spacing:-0.01em;}.cls-81{letter-spacing:-0.01em;}.cls-82{stroke-dasharray:2.31 4.62;}.cls-85{letter-spacing:-0.01em;}.cls-86{stroke-dasharray:3 4;}.cls-87{font-size:12px;}.cls-88{letter-spacing:-0.01em;}.cls-89,.cls-90{stroke:#ccc;}.cls-89,.cls-90,.cls-94{stroke-linecap:round;stroke-linejoin:round;}.cls-89,.cls-94{stroke-width:8px;}.cls-90{stroke-width:7.71px;}.cls-91,.cls-95{font-size:9.37px;font-family:SourceSansPro-Bold, Source Sans Pro;font-weight:700;}.cls-92{letter-spacing:-0.02em;}.cls-93{letter-spacing:-0.02em;}.cls-96{letter-spacing:-0.04em;}.cls-98{letter-spacing:-0.07em;}</style>
  </defs>
  <path class="cls-67" d="M 331.583 3131.857 C 341.688 3131.857 348.004 3121.11 342.951 3112.513 C 340.606 3108.523 336.273 3106.065 331.583 3106.065 L 331.583 3118.961 L 318.455 3118.961 C 318.455 3126.083 324.333 3131.857 331.583 3131.857 Z M 328.953 3103.492 C 321.703 3103.492 315.826 3109.265 315.826 3116.388 L 328.953 3116.388 Z" style="stroke: rgb(46, 186, 155); fill: rgb(46, 186, 155);"/>
  <path class="cls-67" d="M 278.298 3127.028 C 276.787 3127.028 275.843 3128.635 276.599 3129.919 C 276.95 3130.516 277.597 3130.883 278.298 3130.883 L 303.238 3130.883 C 304.748 3130.883 305.693 3129.277 304.937 3127.992 C 304.587 3127.396 303.939 3127.028 303.238 3127.028 L 302.581 3127.028 L 302.581 3105.757 C 302.581 3105.044 301.992 3104.466 301.266 3104.466 L 297.341 3104.466 C 296.615 3104.466 296.027 3105.044 296.027 3105.757 L 296.027 3127.028 L 294.065 3127.028 L 294.065 3111.549 C 294.065 3110.836 293.476 3110.258 292.75 3110.258 L 288.825 3110.258 C 288.099 3110.258 287.511 3110.836 287.511 3111.549 L 287.511 3127.018 L 285.549 3127.018 L 285.549 3116.06 C 285.549 3115.347 284.96 3114.768 284.234 3114.768 L 280.309 3114.768 C 279.583 3114.768 278.995 3115.347 278.995 3116.06 L 278.995 3127.018 Z" style="stroke: rgb(46, 186, 155); fill: rgb(46, 186, 155);"/>
  <line class="cls-82" x1="350.371" y1="3117.679" x2="383.238" y2="3117.679" style="stroke: rgb(46, 186, 155); stroke-width: 2;"/>
  <line class="cls-82" x1="207.295" y1="3117.679" x2="266.485" y2="3117.679" style="stroke: rgb(46, 186, 155); stroke-width: 2;"/>
  <polygon class="cls-47" points="392.873 3067.581 394.639 3072.929 400.359 3072.929 395.737 3076.236 397.503 3081.575 392.873 3078.27 388.242 3081.575 390.018 3076.236 385.387 3072.929 391.107 3072.929 392.873 3067.581" style="stroke: rgb(46, 186, 155); fill: rgb(46, 186, 155);"/>
  <polygon class="cls-47" points="392.873 3153.783 394.639 3159.123 400.359 3159.123 395.737 3162.429 397.503 3167.769 392.873 3164.472 388.242 3167.769 390.018 3162.429 385.387 3159.123 391.107 3159.123 392.873 3153.783" style="stroke: rgb(46, 186, 155); fill: rgb(46, 186, 155);"/>
  <polygon class="cls-47" points="392.873 3132.233 394.639 3137.572 400.359 3137.572 395.737 3140.878 397.503 3146.218 392.873 3142.922 388.242 3146.218 390.018 3140.878 385.387 3137.572 391.107 3137.572 392.873 3132.233" style="stroke: rgb(46, 186, 155); fill: rgb(46, 186, 155);"/>
  <polygon class="cls-47" points="392.873 3110.683 394.639 3116.031 400.359 3116.031 395.737 3119.327 397.503 3124.677 392.873 3121.371 388.242 3124.677 390.018 3119.327 385.387 3116.031 391.107 3116.031 392.873 3110.683" style="stroke: rgb(46, 186, 155); fill: rgb(46, 186, 155);"/>
  <polygon class="cls-47" points="392.873 3089.131 394.639 3094.481 400.359 3094.481 395.737 3097.777 397.503 3103.126 392.873 3099.82 388.242 3103.126 390.018 3097.777 385.387 3094.481 391.107 3094.481 392.873 3089.131" style="stroke: rgb(46, 186, 155); fill: rgb(46, 186, 155);"/>
  <path class="cls-83" d="M 241.447 3032.421 C 221.639 3032.421 205.577 3043.524 205.577 3057.229 C 205.577 3067.446 214.515 3076.216 227.27 3080.014 L 219.353 3095.57 L 240.083 3081.99 C 240.545 3081.99 240.986 3082.038 241.447 3082.038 C 261.266 3082.038 277.317 3070.925 277.317 3057.229 C 277.317 3043.533 261.256 3032.421 241.447 3032.421 Z" style="stroke: rgb(59, 114, 189); stroke-width: 3;"/>
  <path class="cls-70" d="M 172.151 3068.718 C 191.96 3068.718 208.021 3079.821 208.021 3093.526 C 208.021 3103.743 199.083 3112.513 186.328 3116.31 L 194.246 3131.866 L 173.515 3118.287 C 173.053 3118.287 172.612 3118.334 172.151 3118.334 C 152.333 3118.334 136.281 3107.222 136.281 3093.526 C 136.281 3079.83 152.352 3068.718 172.151 3068.718 Z" style="stroke: rgb(46, 186, 155); stroke-width: 3;"/>
</svg>